# xmcd
#
# Track frame offsets:
#	150
#	15107
#	30764
#	42737
#	57499
#	71535
#	85100
#	102412
#	117762
#	130233
#	143690
#	158916
#	172424
#	182343
#	196419
#	208018
#	221049
#
# Disc length: 3107 seconds
# Revision: 2
# Processed by: cddbd v1.5.2PL0 Copyright (c) Steve Scherf et al.
# Submitted via: dBpowerAMP V12.0
#
DISCID=ed0c2111
DTITLE=Slaid Cleaves - For The Brave and Free
DYEAR=2001
DGENRE=Country
TTITLE0=Ramblers
TTITLE1=Brother's Keeper
TTITLE2=For The Brave
TTITLE3=Danger
TTITLE4=Careful
TTITLE5=Something To Lose
TTITLE6=The Ballad Of Nick And Betty
TTITLE7=Another Man's Wealth
TTITLE8=The Dad Song
TTITLE9=Yippie-I-O
TTITLE10=Desert Dreams
TTITLE11=Troubled Times
TTITLE12=Marty
TTITLE13=Lost
TTITLE14=Racetracks and Rodeos
TTITLE15=Double Crossed Heart
TTITLE16=Do You Still Believe
EXTD=
EXTT0=
EXTT1=
EXTT2=
EXTT3=
EXTT4=
EXTT5=
EXTT6=
EXTT7=
EXTT8=
EXTT9=
EXTT10=
EXTT11=
EXTT12=
EXTT13=
EXTT14=
EXTT15=
EXTT16=
PLAYORDER=
